<?xml version="1.0" standalone="no"?>
<svg xmlns:xlink="http://www.w3.org/1999/xlink" id="wave" style="transform:rotate(0deg); transition: 0.3s" viewBox="0 0 1440 490" version="1.1" xmlns="http://www.w3.org/2000/svg"><defs><linearGradient id="sw-gradient-0" x1="0" x2="0" y1="1" y2="0"><stop stop-color="rgba(243, 106, 62, 1)" offset="0%"/><stop stop-color="rgba(255, 179, 11, 1)" offset="100%"/></linearGradient></defs><path style="transform:translate(0, 0px); opacity:1" fill="url(#sw-gradient-0)" d="M0,98L60,114.3C120,131,240,163,360,220.5C480,278,600,359,720,351.2C840,343,960,245,1080,245C1200,245,1320,343,1440,375.7C1560,408,1680,376,1800,359.3C1920,343,2040,343,2160,343C2280,343,2400,343,2520,302.2C2640,261,2760,180,2880,155.2C3000,131,3120,163,3240,220.5C3360,278,3480,359,3600,326.7C3720,294,3840,147,3960,98C4080,49,4200,98,4320,147C4440,196,4560,245,4680,253.2C4800,261,4920,229,5040,220.5C5160,212,5280,229,5400,269.5C5520,310,5640,376,5760,383.8C5880,392,6000,343,6120,277.7C6240,212,6360,131,6480,130.7C6600,131,6720,212,6840,220.5C6960,229,7080,163,7200,187.8C7320,212,7440,327,7560,334.8C7680,343,7800,245,7920,171.5C8040,98,8160,49,8280,81.7C8400,114,8520,229,8580,285.8L8640,343L8640,490L8580,490C8520,490,8400,490,8280,490C8160,490,8040,490,7920,490C7800,490,7680,490,7560,490C7440,490,7320,490,7200,490C7080,490,6960,490,6840,490C6720,490,6600,490,6480,490C6360,490,6240,490,6120,490C6000,490,5880,490,5760,490C5640,490,5520,490,5400,490C5280,490,5160,490,5040,490C4920,490,4800,490,4680,490C4560,490,4440,490,4320,490C4200,490,4080,490,3960,490C3840,490,3720,490,3600,490C3480,490,3360,490,3240,490C3120,490,3000,490,2880,490C2760,490,2640,490,2520,490C2400,490,2280,490,2160,490C2040,490,1920,490,1800,490C1680,490,1560,490,1440,490C1320,490,1200,490,1080,490C960,490,840,490,720,490C600,490,480,490,360,490C240,490,120,490,60,490L0,490Z"/></svg>